<svg width="17" height="17" viewBox="0 0 17 17" fill="none" xmlns="http://www.w3.org/2000/svg">
<path d="M16.02 11.6078C15.8867 11.3828 15.5117 11.0328 14.5784 11.1995C14.0617 11.2912 13.5367 11.3328 13.0117 11.3078C11.07 11.2245 9.3117 10.3328 8.0867 8.95782C7.00337 7.74949 6.3367 6.17449 6.32837 4.47449C6.32837 3.52449 6.5117 2.60782 6.8867 1.74115C7.25337 0.899487 6.99504 0.45782 6.8117 0.274487C6.62004 0.08282 6.17004 -0.183847 5.2867 0.18282C1.87837 1.61615 -0.229963 5.03282 0.0200368 8.69115C0.270037 12.1328 2.6867 15.0745 5.8867 16.1828C6.65337 16.4495 7.4617 16.6078 8.29504 16.6412C8.42837 16.6495 8.5617 16.6578 8.69504 16.6578C11.4867 16.6578 14.1034 15.3412 15.7534 13.0995C16.3117 12.3245 16.1617 11.8328 16.02 11.6078Z" fill="#051724"/>
</svg>
