<svg width="27" height="27" viewBox="0 0 27 27" fill="none" xmlns="http://www.w3.org/2000/svg">
<path d="M20.3489 11.7033C19.9699 12.0846 19.6797 12.5448 19.4989 13.051C19.3181 13.5573 19.2512 14.0972 19.3029 14.6323L19.2849 14.6143C19.3381 15.2442 19.2531 15.878 19.036 16.4717C18.8189 17.0653 18.4749 17.6044 18.028 18.0514C17.581 18.4983 17.0419 18.8424 16.4482 19.0594C15.8546 19.2765 15.2207 19.3615 14.5909 19.3083L14.6089 19.3263C13.8555 19.2562 13.0988 19.4201 12.4419 19.7958C11.7851 20.1715 11.2601 20.7406 10.9386 21.4256C10.6171 22.1106 10.5146 22.878 10.6452 23.6234C10.7759 24.3687 11.1332 25.0556 11.6685 25.5904C12.2038 26.1252 12.891 26.4819 13.6364 26.6118C14.3819 26.7418 15.1492 26.6386 15.8339 26.3165C16.5186 25.9943 17.0872 25.4689 17.4623 24.8117C17.8374 24.1545 18.0007 23.3977 17.9299 22.6443L17.9489 22.6623C17.8957 22.0325 17.9806 21.3986 18.1977 20.8049C18.4148 20.2113 18.7589 19.6722 19.2058 19.2252C19.6528 18.7783 20.1919 18.4342 20.7855 18.2172C21.3792 18.0001 22.013 17.9151 22.6429 17.9683L22.6239 17.9503C23.2393 18.0056 23.8588 17.9047 24.4249 17.6569C24.9909 17.4091 25.4853 17.0224 25.8621 16.5327C26.2389 16.043 26.4861 15.466 26.5805 14.8554C26.675 14.2447 26.6138 13.6201 26.4026 13.0393C26.1914 12.4586 25.837 11.9406 25.3723 11.5333C24.9076 11.126 24.3476 10.8426 23.7442 10.7094C23.1408 10.5762 22.5135 10.5974 21.9205 10.7711C21.3275 10.9449 20.788 11.2655 20.3519 11.7033H20.3489Z" fill="white"/>
<path d="M12.9718 16.9683L12.9528 16.9503C13.4881 17.0042 14.0287 16.9385 14.5356 16.7579C15.0424 16.5773 15.5028 16.2864 15.8834 15.9061C16.2639 15.5258 16.5553 15.0656 16.7362 14.5589C16.9172 14.0522 16.9833 13.5117 16.9298 12.9763L16.9488 12.9943C16.8956 12.3644 16.9806 11.7306 17.1976 11.1369C17.4147 10.5433 17.7588 10.0042 18.2057 9.55717C18.6527 9.11027 19.1918 8.76617 19.7854 8.54917C20.3791 8.33203 21.0129 8.2471 21.6428 8.30027L21.6238 8.28227C22.3773 8.35307 23.1342 8.18963 23.7914 7.81437C24.4487 7.43911 24.9741 6.87024 25.2961 6.18537C25.6181 5.50051 25.721 4.73298 25.5908 3.98747C25.4606 3.24196 25.1036 2.55478 24.5684 2.01964C24.0333 1.48451 23.3461 1.12747 22.6006 0.997251C21.8551 0.867021 21.0876 0.969932 20.4027 1.29195C19.7178 1.61396 19.149 2.13941 18.7737 2.79662C18.3984 3.45382 18.235 4.21079 18.3058 4.96427L18.2878 4.94527C18.3411 5.57516 18.2563 6.2091 18.0393 6.80282C17.8223 7.39654 17.4782 7.93573 17.0313 8.38277C16.5843 8.82967 16.0451 9.17377 15.4514 9.39077C14.8576 9.60777 14.2237 9.69257 13.5938 9.63927L13.6118 9.65827C13.0765 9.60437 12.5358 9.67007 12.029 9.85067C11.5222 10.0312 11.0618 10.3222 10.6812 10.7025C10.3006 11.0828 10.0093 11.543 9.82834 12.0497C9.64744 12.5564 9.58134 13.0969 9.63484 13.6323L9.61684 13.6143C9.66984 14.2441 9.58474 14.8779 9.36764 15.4715C9.15044 16.065 8.80644 16.6041 8.35954 17.051C7.9126 17.4979 7.37356 17.8419 6.78 18.0591C6.18644 18.2762 5.55265 18.3613 4.92284 18.3083L4.94084 18.3263C4.18736 18.2555 3.43039 18.4189 2.77318 18.7942C2.11598 19.1695 1.59053 19.7383 1.26852 20.4232C0.946502 21.1081 0.843582 21.8756 0.973812 22.6211C1.10404 23.3666 1.46108 24.0538 1.99621 24.5889C2.53135 25.1241 3.21853 25.4811 3.96404 25.6113C4.70955 25.7415 5.47708 25.6386 6.16195 25.3166C6.84681 24.9946 7.41568 24.4692 7.79094 23.812C8.16624 23.1547 8.32964 22.3978 8.25884 21.6443L8.27784 21.6623C8.22464 21.0324 8.30964 20.3986 8.52674 19.8049C8.74374 19.2113 9.08784 18.6722 9.53474 18.2252C9.98174 17.7783 10.5208 17.4342 11.1144 17.2172C11.7081 17.0001 12.3419 16.9151 12.9718 16.9683Z" fill="white"/>
<path d="M6.2699 14.961C6.64892 14.5798 6.9391 14.1196 7.11974 13.6133C7.30038 13.107 7.36702 12.567 7.3149 12.032L7.33389 12.05C7.28069 11.42 7.36565 10.7859 7.58286 10.1921C7.80007 9.59827 8.1443 9.05907 8.5915 8.61207C9.0387 8.16509 9.578 7.8211 10.1719 7.60415C10.7658 7.38719 11.3999 7.30249 12.0299 7.35597L12.0109 7.33797C12.7641 7.40854 13.5208 7.24505 14.1777 6.86981C14.8346 6.49458 15.3597 5.92585 15.6816 5.2412C16.0034 4.55654 16.1062 3.78929 15.976 3.04406C15.8458 2.29883 15.4888 1.61191 14.9539 1.07697C14.419 0.54203 13.732 0.18511 12.9868 0.0548905C12.2416 -0.0753395 11.4743 0.0274805 10.7897 0.3493C10.105 0.67112 9.5363 1.19629 9.1611 1.85319C8.7858 2.51009 8.6223 3.26675 8.6929 4.01997L8.6749 4.00197C8.7281 4.63182 8.6431 5.26569 8.426 5.85933C8.2089 6.45297 7.86492 6.99208 7.41796 7.43904C6.97101 7.886 6.43189 8.23003 5.83825 8.44707C5.24461 8.66417 4.61075 8.74917 3.9809 8.69597L3.9989 8.71397C3.38347 8.65877 2.76406 8.75987 2.19808 9.00777C1.6321 9.25567 1.13785 9.64247 0.761139 10.1323C0.384429 10.622 0.137449 11.199 0.0430689 11.8096C-0.0513011 12.4203 0.0099889 13.0449 0.221259 13.6255C0.432529 14.2062 0.786959 14.7241 1.25169 15.1313C1.71642 15.5386 2.27642 15.8219 2.8798 15.9551C3.48317 16.0882 4.1104 16.0669 4.70337 15.8932C5.29633 15.7194 5.83583 15.3988 6.27189 14.961H6.2699Z" fill="white"/>
</svg>
