<svg width="52" height="52" viewBox="0 0 52 52" fill="none" xmlns="http://www.w3.org/2000/svg">
<rect x="0.5" y="0.5" width="51" height="51" rx="9.5" stroke="white"/>
<g clip-path="url(#clip0_203_1386)">
<path d="M19.3332 46.0003C23.0132 46.0003 25.9998 43.0137 25.9998 39.3337V32.667H19.3332C15.6532 32.667 12.6665 35.6537 12.6665 39.3337C12.6665 43.0137 15.6532 46.0003 19.3332 46.0003Z" fill="white"/>
<path d="M12.6665 25.9997C12.6665 22.3197 15.6532 19.333 19.3332 19.333H25.9998V32.6663H19.3332C15.6532 32.6663 12.6665 29.6797 12.6665 25.9997Z" fill="white"/>
<path d="M12.6665 12.6667C12.6665 8.98667 15.6532 6 19.3332 6H25.9998V19.3333H19.3332C15.6532 19.3333 12.6665 16.3467 12.6665 12.6667Z" fill="white"/>
<path d="M25.9999 6H32.6665C36.3465 6 39.3332 8.98667 39.3332 12.6667C39.3332 16.3467 36.3465 19.3333 32.6665 19.3333H25.9999V6Z" fill="white"/>
<path d="M39.3332 25.9997C39.3332 29.6797 36.3465 32.6663 32.6665 32.6663C28.9865 32.6663 25.9999 29.6797 25.9999 25.9997C25.9999 22.3197 28.9865 19.333 32.6665 19.333C36.3465 19.333 39.3332 22.3197 39.3332 25.9997Z" fill="white"/>
</g>
<defs>
<clipPath id="clip0_203_1386">
<rect width="40" height="40" fill="white" transform="translate(6 6)"/>
</clipPath>
</defs>
</svg>
