<svg width="52" height="52" viewBox="0 0 52 52" fill="none" xmlns="http://www.w3.org/2000/svg">
<rect x="0.5" y="0.5" width="51" height="51" rx="9.5" stroke="white"/>
<path d="M25.9905 9.33301C22.6942 9.33301 19.4718 10.3105 16.731 12.1418C13.9902 13.9732 11.854 16.5762 10.5925 19.6216C9.33107 22.6671 9.00102 26.0182 9.64411 29.2512C10.2872 32.4842 11.8745 35.4539 14.2054 37.7848C16.5363 40.1157 19.506 41.703 22.739 42.3461C25.972 42.9892 29.3231 42.6591 32.3686 41.3977C35.414 40.1362 38.017 38 39.8484 35.2592C41.6797 32.5184 42.6572 29.296 42.6572 25.9997C42.6574 23.8109 42.2264 21.6436 41.3889 19.6214C40.5514 17.5992 39.3237 15.7618 37.776 14.2142C36.2284 12.6665 34.391 11.4388 32.3688 10.6013C30.3466 9.7638 28.1793 9.33283 25.9905 9.33301ZM31.2897 34.5871C31.2273 34.7427 31.1324 34.8831 31.0113 34.999C30.8902 35.1148 30.7458 35.2035 30.5876 35.259C30.4295 35.3144 30.2613 35.3355 30.0944 35.3206C29.9274 35.3058 29.7656 35.2554 29.6197 35.173L25.0953 31.6573L22.1914 34.3363C22.124 34.3861 22.0452 34.4182 21.9622 34.4295C21.8792 34.4408 21.7947 34.4311 21.7164 34.4012L22.2731 29.4205L22.2909 29.4346L22.3023 29.3363C22.3023 29.3363 30.4439 21.9238 30.7756 21.6079C31.1114 21.2929 31.0006 21.2246 31.0006 21.2246C31.0197 20.8404 30.3981 21.2246 30.3981 21.2246L19.6105 28.1647L15.118 26.6347C15.118 26.6347 14.428 26.3872 14.363 25.843C14.2947 25.303 15.1405 25.0097 15.1405 25.0097L33.0022 17.9138C33.0022 17.9138 34.4705 17.2596 34.4705 18.343L31.2897 34.5871Z" fill="white"/>
</svg>
