<svg width="52" height="52" viewBox="0 0 52 52" fill="none" xmlns="http://www.w3.org/2000/svg">
<rect x="0.5" y="0.5" width="51" height="51" rx="9.5" stroke="white"/>
<path d="M44.5684 14.4486C43.2016 15.0558 41.7332 15.4642 40.192 15.6486C41.766 14.7058 42.9728 13.2134 43.5412 11.4338C42.07 12.3066 40.4392 12.9406 38.702 13.2834C37.3124 11.8022 35.3328 10.8766 33.1416 10.8766C28.2984 10.8118 24.5748 15.5434 25.7208 20.2306C19.3892 19.9134 13.776 16.8798 10.0168 12.269C7.96521 15.6146 9.13001 20.399 12.3752 22.4414C11.1268 22.4014 9.95121 22.0586 8.92441 21.4886C8.87681 25.2106 11.5172 28.353 15.036 29.0542C13.9548 29.3558 12.7092 29.403 11.5952 29.1854C12.5652 32.2118 15.3788 34.4158 18.7124 34.477C15.6984 36.8854 11.4788 38.141 7.43201 37.6322C23.7048 47.647 41.694 34.5262 40.7652 18.3918C42.2544 17.3166 43.5472 15.9754 44.5684 14.4486Z" fill="white"/>
</svg>
